<svg id="Layer_1" data-name="Layer 1" xmlns="http://www.w3.org/2000/svg" xmlns:xlink="http://www.w3.org/1999/xlink" viewBox="0 0 7427.99 2031.2"><defs><style>.cls-1,.cls-10,.cls-12,.cls-13,.cls-14,.cls-15,.cls-16,.cls-17,.cls-18,.cls-9{fill:none;}.cls-19,.cls-2,.cls-27,.cls-3,.cls-36,.cls-43,.cls-48,.cls-51,.cls-55,.cls-57,.cls-63,.cls-65,.cls-66,.cls-69,.cls-75,.cls-79,.cls-85{fill:#231f20;}.cls-3{font-size:70px;font-family:Palatino-Bold, Palatino;font-weight:700;}.cls-4{letter-spacing:-0.05em;}.cls-5{letter-spacing:-0.06em;}.cls-6{letter-spacing:-0.11em;}.cls-7{letter-spacing:-0.05em;}.cls-8{letter-spacing:-0.05em;}.cls-10,.cls-12,.cls-13,.cls-14,.cls-15,.cls-16,.cls-17,.cls-18,.cls-9{stroke:#231f20;stroke-miterlimit:10;stroke-width:5px;}.cls-10{stroke-dasharray:21.51 21.51;}.cls-11{clip-path:url(#clip-path);}.cls-12{stroke-dasharray:23 23;}.cls-13{stroke-dasharray:13 13;}.cls-14{stroke-dasharray:14 14;}.cls-15{stroke-dasharray:30 30;}.cls-16{stroke-dasharray:19 19;}.cls-17{stroke-dasharray:50 50;}.cls-18{stroke-dasharray:27 27;}.cls-19{font-size:30px;}.cls-19,.cls-27,.cls-36,.cls-43,.cls-48,.cls-51,.cls-55,.cls-57,.cls-63,.cls-65,.cls-66,.cls-69,.cls-75,.cls-79,.cls-85{font-family:Palatino-Roman, Palatino;}.cls-20{letter-spacing:-0.07em;}.cls-21{letter-spacing:-0.02em;}.cls-22{letter-spacing:-0.07em;}.cls-23{letter-spacing:-0.09em;}.cls-24{letter-spacing:-0.04em;}.cls-25{letter-spacing:-0.07em;}.cls-26{letter-spacing:-0.04em;}.cls-27{font-size:34px;}.cls-28{letter-spacing:-0.09em;}.cls-29{letter-spacing:-0.02em;}.cls-30{letter-spacing:-0.09em;}.cls-31{letter-spacing:-0.04em;}.cls-32{letter-spacing:0em;}.cls-33{letter-spacing:-0.09em;}.cls-34{letter-spacing:-0.04em;}.cls-35{letter-spacing:-0.02em;}.cls-36{font-size:40px;}.cls-37{letter-spacing:-0.11em;}.cls-38{letter-spacing:-0.07em;}.cls-39{letter-spacing:-0.11em;}.cls-40{letter-spacing:-0.11em;}.cls-41{letter-spacing:-0.09em;}.cls-42{letter-spacing:-0.11em;}.cls-43{font-size:80px;}.cls-44{letter-spacing:-0.04em;}.cls-45{letter-spacing:-0.04em;}.cls-46{letter-spacing:-0.07em;}.cls-47{letter-spacing:-0.02em;}.cls-48{font-size:28px;}.cls-49{letter-spacing:-0.02em;}.cls-50{letter-spacing:-0.02em;}.cls-51{font-size:50px;}.cls-52{letter-spacing:-0.02em;}.cls-53{letter-spacing:-0.02em;}.cls-54{letter-spacing:-0.09em;}.cls-55{font-size:47.47px;}.cls-56{letter-spacing:-0.07em;}.cls-57{font-size:35px;}.cls-58{letter-spacing:-0.09em;}.cls-59{letter-spacing:-0.02em;}.cls-60{letter-spacing:-0.04em;}.cls-61{letter-spacing:-0.04em;}.cls-62{letter-spacing:-0.07em;}.cls-63{font-size:39.17px;}.cls-64{letter-spacing:-0.07em;}.cls-65{font-size:32.05px;}.cls-66{font-size:42px;}.cls-67{letter-spacing:-0.04em;}.cls-68{letter-spacing:-0.02em;}.cls-69{font-size:37px;}.cls-70{letter-spacing:-0.04em;}.cls-71{letter-spacing:-0.02em;}.cls-72{letter-spacing:-0.07em;}.cls-73{letter-spacing:-0.04em;}.cls-74{letter-spacing:-0.09em;}.cls-75{font-size:38px;}.cls-76{letter-spacing:-0.02em;}.cls-77{letter-spacing:-0.07em;}.cls-78{letter-spacing:-0.04em;}.cls-79{font-size:31px;}.cls-80{letter-spacing:-0.04em;}.cls-81{letter-spacing:-0.07em;}.cls-82{letter-spacing:-0.07em;}.cls-83{letter-spacing:-0.07em;}.cls-84{letter-spacing:-0.02em;}.cls-85{font-size:32px;}.cls-86{letter-spacing:-0.07em;}.cls-87{letter-spacing:-0.05em;}.cls-88{letter-spacing:-0.04em;}.cls-89{letter-spacing:-0.02em;}.cls-90{letter-spacing:-0.04em;}</style><clipPath id="clip-path" transform="translate(-38.15 -52.61)"><rect class="cls-1" y="-247.18" width="7507.51" height="2928.19"/></clipPath></defs><title>process</title><rect class="cls-2" x="119.99" y="328.73" width="7308" height="12.95"/><rect class="cls-2" x="119.99" y="328.73" width="12.94" height="57"/><text class="cls-3" transform="translate(0 451.05)">JANUA<tspan class="cls-4" x="248.9" y="0">R</tspan><tspan x="295.67" y="0">Y</tspan></text><rect class="cls-2" x="914.95" y="328.73" width="12.95" height="57"/><text class="cls-3" transform="translate(728.98 451.05)">FEBRUA<tspan class="cls-5" x="287.83" y="0">R</tspan><tspan x="334.53" y="0">Y</tspan></text><rect class="cls-2" x="2345.88" y="328.73" width="12.95" height="57"/><text class="cls-3" transform="translate(2209.04 451.05)">MARCH</text><rect class="cls-2" x="3159.19" y="328.73" width="12.95" height="57"/><text class="cls-3" transform="translate(3055.69 451.05)">APRIL</text><rect class="cls-2" x="3899.19" y="328.73" width="12.95" height="57"/><text class="cls-3" transform="translate(3821.33 451.05)">M<tspan class="cls-6" x="70" y="0">A</tspan><tspan x="116.75" y="0">Y</tspan></text><rect class="cls-2" x="4289.35" y="328.73" width="12.94" height="57"/><text class="cls-3" transform="translate(4079.66 451.05)">SEPTEMBER</text><rect class="cls-2" x="4799.35" y="328.73" width="12.94" height="57"/><text class="cls-3" transform="translate(4625.65 451.05)">OCTOBER</text><rect class="cls-2" x="5473.35" y="328.73" width="12.94" height="57"/><text class="cls-3" transform="translate(5265.65 451.05)">NOVEMBER</text><rect class="cls-2" x="6063.35" y="328.73" width="12.94" height="57"/><text class="cls-3" transform="translate(5855.65 451.05)">DECEMBER</text><rect class="cls-2" x="6581.35" y="328.73" width="12.94" height="57"/><text class="cls-3" transform="translate(6411.65 451.05)">JANUA<tspan class="cls-7" x="248.9" y="0">R</tspan><tspan x="295.6" y="0">Y</tspan></text><rect class="cls-2" x="7055.35" y="328.73" width="12.94" height="57"/><text class="cls-3" transform="translate(6867.65 451.05)">FEBRUA<tspan class="cls-8" x="287.83" y="0">R</tspan><tspan x="334.6" y="0">Y</tspan></text><line class="cls-9" x1="189.99" y1="779.21" x2="187.99" y2="853.21"/><line class="cls-9" x1="1366.87" y1="752.96" x2="1343.49" y2="753.08"/><line class="cls-9" x1="3079.07" y1="596.62" x2="3055.69" y2="596.74"/><line class="cls-9" x1="3079.29" y1="647.5" x2="3055.91" y2="647.63"/><line class="cls-9" x1="3079.29" y1="737.78" x2="3055.91" y2="737.9"/><line class="cls-9" x1="1366.87" y1="902.13" x2="1343.49" y2="902.25"/><line class="cls-9" x1="974.99" y1="1480.87" x2="974.99" y2="1557.21"/><line class="cls-9" x1="732.99" y1="1007.21" x2="701.99" y2="1075.21"/><line class="cls-9" x1="438.33" y1="1328.21" x2="438.42" y2="1343.21"/><line class="cls-10" x1="438.56" y1="1364.72" x2="438.76" y2="1396.99"/><line class="cls-9" x1="438.83" y1="1407.74" x2="438.92" y2="1422.74"/><polygon class="cls-2" points="421.44 1417.75 439.08 1447.86 456.34 1417.53 421.44 1417.75"/><line class="cls-9" x1="1015.32" y1="1195.55" x2="1044.71" y2="1195.24"/><polygon class="cls-2" points="1041.2 1207.74 1062.65 1195.05 1040.93 1182.81 1041.2 1207.74"/><line class="cls-9" x1="824.99" y1="1473.91" x2="869.13" y2="1473.25"/><polygon class="cls-2" points="864.98 1488.27 890.66 1472.93 864.54 1458.36 864.98 1488.27"/><line class="cls-9" x1="398.99" y1="948.21" x2="443.54" y2="947.53"/><polygon class="cls-2" points="439.39 962.55 465.07 947.21 438.94 932.64 439.39 962.55"/><g class="cls-11"><path class="cls-12" d="M868.14,1267.83s-20.66,90.66-106,86c-115.25-6.3-171.9-138.21-185.69-203" transform="translate(-38.15 -52.61)"/><polygon class="cls-2" points="559.27 1101.35 534.99 1069.7 519.72 1106.55 559.27 1101.35"/><path class="cls-13" d="M863.14,1155.32c0,2.5,5,71,5,71" transform="translate(-38.15 -52.61)"/><path class="cls-14" d="M519.14,970.33c0,2.5,5,96.49,5,96.49" transform="translate(-38.15 -52.61)"/><polyline class="cls-9" points="786.99 509.15 737.99 509.15 737.99 623.11 786.99 623.11"/><polyline class="cls-9" points="1507.99 505.2 1556.99 505.2 1556.99 619.15 1507.99 619.15"/><polyline class="cls-9" points="2238.99 479.48 2203.99 479.48 2203.99 560.88 2238.99 560.88"/><polyline class="cls-9" points="2449.99 479.48 2484.99 479.48 2484.99 560.88 2449.99 560.88"/><polyline class="cls-9" points="1895.47 23.57 1852.82 23.57 1852.82 122.75 1895.47 122.75"/><polyline class="cls-9" points="2196.34 23.57 2238.99 23.57 2238.99 122.75 2196.34 122.75"/><polyline class="cls-9" points="3090.69 479.48 3055.69 479.48 3055.69 560.88 3090.69 560.88"/><polyline class="cls-9" points="3533.99 479.48 3568.99 479.48 3568.99 560.88 3533.99 560.88"/><polyline class="cls-9" points="3848.16 479.48 3813.16 479.48 3813.16 560.88 3848.16 560.88"/><polyline class="cls-9" points="4251.46 479.48 4286.46 479.48 4286.46 560.88 4251.46 560.88"/><path class="cls-15" d="M1117.48,1059.82s57.85-184.73,7-376.87" transform="translate(-38.15 -52.61)"/><polygon class="cls-2" points="1104.33 630.56 1079.33 606.21 1070.73 640.03 1104.33 630.56"/><path class="cls-15" d="M1480.14,1029.82s-34.18,100.75,42.92,228.87" transform="translate(-38.15 -52.61)"/><polygon class="cls-2" points="1467.55 1211.06 1498.49 1227.2 1497.01 1192.34 1467.55 1211.06"/><path class="cls-16" d="M1825.14,933.82s108.53-22.85,23.52-81.11" transform="translate(-38.15 -52.61)"/><polygon class="cls-2" points="1820.23 791.67 1795.33 790.54 1806.79 812.67 1820.23 791.67"/><path class="cls-16" d="M3194.64,1048.82s-12.37,72.46,92.47,76.86" transform="translate(-38.15 -52.61)"/><polygon class="cls-2" points="3244.48 1087.81 3270.49 1073.04 3244.7 1057.89 3244.48 1087.81"/><path class="cls-16" d="M4231.14,1299.82s7.69-55.49,140.47-60.92" transform="translate(-38.15 -52.61)"/><polygon class="cls-2" points="4329.46 1201.43 4354.99 1185.86 4328.73 1171.53 4329.46 1201.43"/><path class="cls-9" d="M6500,801s-1.65,36.36,39.28,43.25" transform="translate(-38.15 -52.61)"/><polygon class="cls-2" points="6497.32 801.02 6515.44 792.71 6499.18 781.16 6497.32 801.02"/><path class="cls-9" d="M5828.39,1457.18s-2.06,33.14,23.46,42.13" transform="translate(-38.15 -52.61)"/><polygon class="cls-2" points="5809.08 1455.55 5827.89 1448.93 5812.75 1435.95 5809.08 1455.55"/><path class="cls-9" d="M5760.12,1433.15s-105.29,35.51-127.95,83.89" transform="translate(-38.15 -52.61)"/><polygon class="cls-2" points="5585.74 1458.72 5589.99 1478.2 5604.74 1464.78 5585.74 1458.72"/><path class="cls-9" d="M5712,1427s-292.51-4.46-272.31,239.56" transform="translate(-38.15 -52.61)"/><polygon class="cls-2" points="5391.37 1612 5402.99 1628.2 5411.22 1610.04 5391.37 1612"/><path class="cls-16" d="M6071,1523.82s29.81,24,77.18,28.26" transform="translate(-38.15 -52.61)"/><polygon class="cls-2" points="6106.58 1509.11 6124.38 1500.11 6107.69 1489.19 6106.58 1509.11"/><path class="cls-16" d="M6071,1475.82s27-35.4,73.8-41.71" transform="translate(-38.15 -52.61)"/><polygon class="cls-2" points="6104.55 1391.83 6120.98 1380.54 6102.98 1371.95 6104.55 1391.83"/><path class="cls-9" d="M6932.91,801s-1.66,36.36,39.27,43.25" transform="translate(-38.15 -52.61)"/><polygon class="cls-2" points="6930.22 801.02 6948.35 792.71 6932.09 781.16 6930.22 801.02"/><path class="cls-16" d="M4411.44,1535.82s-213.59,61.78-27.9,137.79" transform="translate(-38.15 -52.61)"/><polygon class="cls-2" points="4335.92 1633.2 4365.49 1628.7 4346.81 1605.34 4335.92 1633.2"/><path class="cls-16" d="M1840,1102.77c34.23-25.28,106.73-93.41-14.86-148" transform="translate(-38.15 -52.61)"/><polygon class="cls-2" points="1811.84 1058.21 1786.99 1060.2 1797.69 1037.69 1811.84 1058.21"/><path class="cls-9" d="M1892.35,1219.05c-35.55,2-105.13-1.35-128.21-53.73" transform="translate(-38.15 -52.61)"/><polygon class="cls-2" points="1848.46 1151.77 1875.62 1164.3 1851.19 1181.56 1848.46 1151.77"/><path class="cls-9" d="M1881.74,719.89c-15.55,10-41.15,26.9-77.1,51.93" transform="translate(-38.15 -52.61)"/><polygon class="cls-2" points="1831.92 657.03 1861.81 655.8 1847.93 682.3 1831.92 657.03"/><line class="cls-9" x1="2217.14" y1="1421.21" x2="2066.66" y2="1421.21"/><polygon class="cls-2" points="2212.75 1406.25 2238.66 1421.2 2212.75 1436.16 2212.75 1406.25"/><line class="cls-9" x1="2345.88" y1="1534.35" x2="2345.88" y2="1475.2"/><polygon class="cls-2" points="2360.84 1529.97 2345.88 1555.87 2330.92 1529.97 2360.84 1529.97"/><line class="cls-9" x1="2396.3" y1="606.71" x2="2345.88" y2="606.71"/><polygon class="cls-2" points="2391.92 591.75 2417.83 606.71 2391.92 621.66 2391.92 591.75"/><line class="cls-9" x1="2396.3" y1="673.69" x2="2345.88" y2="673.69"/><polygon class="cls-2" points="2391.92 658.73 2417.83 673.69 2391.92 688.65 2391.92 658.73"/><line class="cls-9" x1="3545.49" y1="1113.37" x2="3545.49" y2="1032.71"/><path class="cls-9" d="M2056,765.83c-2.66-8.63-6.69-20.81-12.79-38" transform="translate(-38.15 -52.61)"/><polygon class="cls-2" points="2031.17 705.52 2022.67 734.21 2002.08 712.5 2031.17 705.52"/><path class="cls-9" d="M1830,1444.6c-39.74-.91-120.62-9.71-120.62-66.12" transform="translate(-38.15 -52.61)"/><polygon class="cls-2" points="1787.35 1376.91 1813.33 1391.75 1787.49 1406.83 1787.35 1376.91"/><path class="cls-9" d="M1690.75,1603.93c-71.8-67.56-323.38-326.62-246.61-574.11" transform="translate(-38.15 -52.61)"/><polygon class="cls-2" points="1660.72 1534.91 1671.18 1568.2 1637.12 1560.62 1660.72 1534.91"/><path class="cls-15" d="M2384.27,1402.45c.84-94.93,3.44-444.51-.24-798.66" transform="translate(-38.15 -52.61)"/><polygon class="cls-2" points="2363.52 1344.83 2345.88 1374.94 2328.62 1344.61 2363.52 1344.83"/><polyline class="cls-9" points="870.66 1446.2 870.66 1396.87 1441.99 1396.87 1441.99 1712.87 870.66 1712.87 870.66 1499.95"/><polyline class="cls-9" points="1673.24 1543.2 1718.08 1543.2 2161.99 1543.2 2161.99 1781.2 1650.66 1781.2 1650.66 1572.2"/><polyline class="cls-9" points="1056.66 1177.87 1056.66 1102.7 1372.22 1102.7 1372.22 1357.74 1056.66 1357.74 1056.66 1212.2"/><rect class="cls-9" x="2432.42" y="784.07" width="483.65" height="72.4"/><rect class="cls-9" x="3950.82" y="579.87" width="458.78" height="119.74"/><rect class="cls-9" x="4685.34" y="465.57" width="240.96" height="190.6"/><rect class="cls-9" x="3813.16" y="749.87" width="242.1" height="155.1"/><rect class="cls-9" x="4362.11" y="1205.41" width="389.6" height="115.32"/><rect class="cls-9" x="5265.66" y="479" width="442.65" height="82.36"/><rect class="cls-9" x="5922.02" y="478.18" width="278.68" height="82.36"/><rect class="cls-9" x="6852.05" y="943.07" width="390.26" height="106.04"/><rect class="cls-9" x="6414.78" y="475.87" width="359.04" height="153.4"/><rect class="cls-9" x="6867.66" y="475.88" width="359.04" height="122.97"/><rect class="cls-9" x="5310.96" y="775.61" width="324.78" height="50.88"/><rect class="cls-9" x="4372.11" y="1607.59" width="420.58" height="43.49"/><polyline class="cls-15" points="2805.69 605.8 2870.57 605.8 2870.57 784.07"/><line class="cls-15" x1="2805.69" y1="673.69" x2="2868.33" y2="673.69"/><path class="cls-15" d="M2584.81,1473.82s150.85-3.37,272.67-256.91c95.65-199.08,179.53-249.24,221.86-261.6" transform="translate(-38.15 -52.61)"/><polygon class="cls-2" points="3039.32 921.27 3066 898.76 3033.17 886.91 3039.32 921.27"/><polyline class="cls-9" points="3106.99 996.21 3106.99 1199.2 3124.55 1199.2"/><polygon class="cls-2" points="3120.91 1211.67 3142.49 1199.2 3120.91 1186.74 3120.91 1211.67"/><line class="cls-9" x1="3935.18" y1="789.71" x2="3935.18" y2="842.93"/><polygon class="cls-2" points="3922.72 839.28 3935.18 860.87 3947.65 839.28 3922.72 839.28"/><line class="cls-9" x1="4805.82" y1="524.29" x2="4805.82" y2="572.18"/><polygon class="cls-2" points="4793.36 568.53 4805.82 590.12 4818.29 568.53 4793.36 568.53"/><polyline class="cls-9" points="5798.99 742.7 5791.33 742.7 5820.35 742.7"/><polygon class="cls-2" points="5817.8 751.43 5832.91 742.7 5817.8 733.98 5817.8 751.43"/><polyline class="cls-9" points="6422.44 682.52 6414.77 682.52 6443.8 682.52"/><polygon class="cls-2" points="6441.25 691.25 6456.36 682.52 6441.25 673.8 6441.25 691.25"/><polyline class="cls-9" points="6835.99 682.52 6828.33 682.52 6857.35 682.52"/><polygon class="cls-2" points="6854.8 691.25 6869.91 682.52 6854.8 673.8 6854.8 691.25"/><polyline class="cls-9" points="5798.99 795.42 5791.33 795.42 5820.35 795.42"/><polygon class="cls-2" points="5817.8 804.14 5832.91 795.42 5817.8 786.69 5817.8 804.14"/><polyline class="cls-9" points="5798.99 848.13 5791.33 848.13 5820.35 848.13"/><polygon class="cls-2" points="5817.8 856.86 5832.91 848.13 5817.8 839.41 5817.8 856.86"/><polyline class="cls-9" points="5798.99 900.85 5791.33 900.85 5820.35 900.85"/><polygon class="cls-2" points="5817.8 909.58 5832.91 900.85 5817.8 892.13 5817.8 909.58"/><polyline class="cls-9" points="5798.99 953.57 5791.33 953.57 5820.35 953.57"/><polygon class="cls-2" points="5817.8 962.29 5832.91 953.57 5817.8 944.84 5817.8 962.29"/><polyline class="cls-9" points="5802.14 1007.93 5791.33 1007.93 5832.05 1007.93"/><polygon class="cls-2" points="5828.41 1020.39 5849.99 1007.93 5828.41 995.46 5828.41 1020.39"/><line class="cls-9" x1="3935.18" y1="905.21" x2="3935.18" y2="958.44"/><polygon class="cls-2" points="3922.72 954.79 3935.18 976.38 3947.65 954.79 3922.72 954.79"/><line class="cls-9" x1="4431.99" y1="1320.74" x2="4424.33" y2="1423.31"/><polygon class="cls-2" points="4412.17 1418.75 4422.99 1441.2 4437.03 1420.61 4412.17 1418.75"/><line class="cls-9" x1="4571.55" y1="1320.74" x2="4620.83" y2="1392.42"/><polygon class="cls-2" points="4608.49 1396.48 4630.99 1407.21 4629.04 1382.35 4608.49 1396.48"/><line class="cls-9" x1="4678.99" y1="1320.74" x2="4729.72" y2="1359.34"/><polygon class="cls-2" points="4719.27 1367.05 4743.99 1370.2 4734.36 1347.21 4719.27 1367.05"/><line class="cls-9" x1="4055.26" y1="874.4" x2="4108.49" y2="874.4"/><polygon class="cls-2" points="4104.84 886.87 4126.43 874.4 4104.84 861.93 4104.84 886.87"/><path class="cls-9" d="M4420.14,752.23s53.23,186.64,30.43,380.25" transform="translate(-38.15 -52.61)"/><polygon class="cls-2" points="4398.05 1073.61 4409.6 1101.2 4427.73 1077.41 4398.05 1073.61"/><line class="cls-9" x1="4362.11" y1="1320.74" x2="4274.27" y2="1374.8"/><polygon class="cls-2" points="4270.84 1362.27 4258.99 1384.2 4283.91 1383.51 4270.84 1362.27"/><line class="cls-9" x1="4362.11" y1="1263.35" x2="4262.88" y2="1271.32"/><polygon class="cls-2" points="4265.51 1258.6 4244.99 1272.76 4267.51 1283.46 4265.51 1258.6"/><path class="cls-16" d="M4124.64,1450.82s-76-7-76-105.73c0-115.54,117.71-151.94,310.5-143.72" transform="translate(-38.15 -52.61)"/><polygon class="cls-2" points="4315.95 1163.63 4342.49 1149.84 4317.28 1133.74 4315.95 1163.63"/><polyline class="cls-9" points="5014.99 979.15 4964.99 979.15 4964.99 1205.41 5032.47 1205.41"/><polygon class="cls-2" points="5028.09 1220.37 5053.99 1205.41 5028.09 1190.45 5028.09 1220.37"/><polyline class="cls-9" points="5258.07 948.75 5295.99 973.21 5258.22 996.72"/><polygon class="cls-2" points="5254.38 961.2 5242.99 939.02 5267.89 940.25 5254.38 961.2"/><polygon class="cls-2" points="5254.73 984.21 5242.99 1006.21 5267.91 1005.38 5254.73 984.21"/><path class="cls-9" d="M5293.68,572.8s-84-186.11,46.62-308.62" transform="translate(-38.15 -52.61)"/><polygon class="cls-2" points="5309.84 228.27 5321.29 195.3 5287.02 201.86 5309.84 228.27"/><line class="cls-17" x1="5761.97" x2="5761.97" y2="2031.2"/><polyline class="cls-15" points="4076.66 1860.21 3848.16 1860.21 3848.16 904.97"/><path class="cls-18" d="M3886.31,1048.49s-104.56-72.24-103.06-206.17S3868.81,614,3868.81,614" transform="translate(-38.15 -52.61)"/><line class="cls-9" x1="6421.78" y1="1628.21" x2="7238.55" y2="1628.21"/><polygon class="cls-2" points="7231.25 1653.14 7274.43 1628.2 7231.25 1603.27 7231.25 1653.14"/><path class="cls-15" d="M556.92,666.32s-31.29-659,1302-576.2" transform="translate(-38.15 -52.61)"/><line class="cls-15" x1="1951.36" y1="180.3" x2="1973.69" y2="560.88"/><line class="cls-15" x1="1949.88" y1="675.21" x2="1976.36" y2="1126.43"/><path class="cls-16" d="M4819.7,1719.34s201.43,273,578.44,277.49C5749.37,2001,5924,1703,5955.53,1577.41" transform="translate(-38.15 -52.61)"/><polygon class="cls-2" points="5933.2 1533.17 5922.02 1500.11 5898.98 1526.32 5933.2 1533.17"/><polyline class="cls-9" points="7242.31 1107.2 7242.31 1135.36 6847.73 1135.36 6831.92 1162.03 6815.18 1134.62 6411.66 1134.62 6411.66 1107.2"/><path class="cls-18" d="M3353.49,515.82s178.21-244.08,825-231.91,778.15,44.83,852.66,110.38c140.24,123.38,195,179.22,250,180.05" transform="translate(-38.15 -52.61)"/><path class="cls-18" d="M2700.72,603.79s168.42-355.88,882.92-355.88c614.5,0,285.16,0,1216.36,13.39,490,7,314,523.51,534.14,687.19" transform="translate(-38.15 -52.61)"/></g><text class="cls-19" transform="translate(3836.33 782.63)">MOVEMENTS</text><text class="cls-19" transform="translate(3905.66 1012.64)">DIS<tspan class="cls-20" x="49.07" y="0">T</tspan><tspan x="65.27" y="0">ANCE</tspan></text><text class="cls-19" transform="translate(3905.66 1048.64)">SENSORS</text><text class="cls-19" transform="translate(4140.32 865.13)">PO<tspan class="cls-20" x="41.7" y="0">T</tspan><tspan x="57.9" y="0">. + ELASTIC </tspan></text><text class="cls-19" transform="translate(4140.32 901.13)">BANDS</text><text class="cls-19" transform="translate(4366.31 1147.13)">EASE OF USE</text><text class="cls-19" transform="translate(4751.69 1391.51)">NOT GLITCHY</text><text class="cls-19" transform="translate(4619.69 1448.51)">RESPONSIVENESS</text><text class="cls-19" transform="translate(4385.69 1478.45)">ACCURAC<tspan class="cls-21" x="153.85" y="0">Y</tspan><tspan x="173.32" y="0" xml:space="preserve"> /</tspan></text><text class="cls-19" transform="translate(4385.69 1514.45)">SENSITIVITY</text><text class="cls-19" transform="translate(4096.07 1391.99)">EASE OF </text><text class="cls-19" transform="translate(4096.07 1427.99)">IMPLEMEN<tspan class="cls-22" x="164.88" y="0">T</tspan><tspan class="cls-20" x="181.05" y="0">A</tspan><tspan x="202.19" y="0">TION</tspan></text><text class="cls-19" transform="translate(4047.17 1281.5)">COM<tspan class="cls-23" x="73.23" y="0">P</tspan><tspan x="88.62" y="0">ACT &amp;</tspan></text><text class="cls-19" transform="translate(4047.17 1317.5)">PO<tspan class="cls-24" x="41.7" y="0">R</tspan><tspan class="cls-25" x="60.66" y="0">T</tspan><tspan x="76.86" y="0">ABLE</tspan></text><text class="cls-19" transform="translate(4366.28 1183.19)">ES<tspan class="cls-20" x="34.07" y="0">T</tspan><tspan x="50.27" y="0">ABLISHED TECH</tspan></text><text class="cls-19" transform="translate(4373.27 1238.66)">M<tspan class="cls-20" x="28.37" y="0">A</tspan><tspan x="49.52" y="0">TERIALIT</tspan><tspan class="cls-21" x="186.53" y="0">Y</tspan><tspan x="206" y="0" xml:space="preserve"> &amp;</tspan></text><text class="cls-19" transform="translate(4373.27 1274.66)">M<tspan class="cls-20" x="28.37" y="0">A</tspan><tspan x="49.52" y="0">TERIA</tspan><tspan class="cls-26" x="139.71" y="0">L</tspan><tspan x="156.92" y="0" xml:space="preserve"> PROPE</tspan><tspan class="cls-24" x="262.61" y="0">R</tspan><tspan x="281.57" y="0">TIES </tspan></text><text class="cls-19" transform="translate(4373.27 1310.66)">OF SENSORS</text><text class="cls-27" transform="translate(4089.56 1843.99)">IMPLEMENT TECHNICAL<tspan class="cls-28" x="421.23" y="0">L</tspan><tspan class="cls-29" x="438.84" y="0">Y</tspan><tspan x="460.94" y="0"> </tspan></text><text class="cls-27" transform="translate(4089.56 1884.79)"><tspan class="cls-29">T</tspan><tspan x="20.26" y="0">O ENGAGE </tspan><tspan class="cls-30" x="212.12" y="0">P</tspan><tspan x="229.56" y="0">A</tspan><tspan class="cls-31" x="256.01" y="0">R</tspan><tspan class="cls-32" x="277.5" y="0">TICI</tspan><tspan class="cls-33" x="345.35" y="0">P</tspan><tspan x="362.75" y="0">ANTS</tspan></text><text class="cls-19" transform="translate(5275.88 511.19)">TECHNICA<tspan class="cls-34" x="162.58" y="0">L</tspan><tspan x="179.8" y="0" xml:space="preserve"> FUNCTIONAL</tspan></text><text class="cls-19" transform="translate(5275.88 547.19)">PRO<tspan class="cls-35" x="61.74" y="0">T</tspan><tspan x="79.62" y="0">OTYPE</tspan></text><text class="cls-19" transform="translate(5940.1 510.38)">FREE S<tspan class="cls-20" x="96.62" y="0">T</tspan><tspan x="112.81" y="0">ANDING</tspan></text><text class="cls-19" transform="translate(5972.21 546.38)">PRO<tspan class="cls-35" x="61.74" y="0">T</tspan><tspan x="79.62" y="0">OTYPE</tspan></text><text class="cls-36" transform="translate(6879.22 1007.72)">3<tspan class="cls-35" x="20" y="0">r</tspan><tspan x="35.12" y="0">d E</tspan><tspan class="cls-37" x="93.99" y="0">V</tspan><tspan x="118.43" y="0">ALU</tspan><tspan class="cls-38" x="205.09" y="0">A</tspan><tspan x="233.25" y="0">TION</tspan></text><text class="cls-19" transform="translate(6471.9 510.37)">1st E<tspan class="cls-39" x="63.33" y="0">V</tspan><tspan x="81.69" y="0">ALU</tspan><tspan class="cls-22" x="146.69" y="0">A</tspan><tspan x="167.8" y="0">TION</tspan></text><text class="cls-19" transform="translate(6585.21 546.37)">+</text><text class="cls-19" transform="translate(6464.88 582.37)">POTENTIOMETER</text><text class="cls-19" transform="translate(6505.35 618.37)">(RO<tspan class="cls-20" x="53.61" y="0">TA</tspan><tspan x="90.95" y="0">TION)</tspan></text><text class="cls-19" transform="translate(6918.45 510.37)">2nd E<tspan class="cls-40" x="76.61" y="0">V</tspan><tspan x="94.95" y="0">ALU</tspan><tspan class="cls-22" x="159.94" y="0">A</tspan><tspan x="181.06" y="0">T</tspan></text><text class="cls-19" transform="translate(7117.91 510.37)">I</text><text class="cls-19" transform="translate(7127.4 510.37)">ON</text><text class="cls-19" transform="translate(7038.09 546.37)">+</text><text class="cls-19" transform="translate(6913.23 582.37)">ACCELEROMETER</text><text class="cls-19" transform="translate(5075.88 1216.18)">GRIDSTICK<tspan class="cls-34" x="163.55" y="0"> </tspan><tspan x="169.94" y="0">AS</tspan><tspan class="cls-24" x="209.02" y="0"> </tspan><tspan x="215.44" y="0">A</tspan></text><text class="cls-19" transform="translate(5075.88 1252.18)">NEGOTI<tspan class="cls-20" x="118.23" y="0">A</tspan><tspan x="139.37" y="0">TION BETWEEN </tspan></text><text class="cls-19" transform="translate(5075.88 1288.18)">FREE/OPEN &amp; CON</text><text class="cls-19" transform="translate(5360.52 1288.18)">-</text><text class="cls-19" transform="translate(5075.88 1324.18)">STRAINED SYSTEMS</text><text class="cls-19" transform="translate(5266.92 629.2)">2 CALIPERS + </text><text class="cls-19" transform="translate(5266.92 665.2)">SOFT<tspan class="cls-23" x="74.4" y="0">W</tspan><tspan x="101.67" y="0">ARE PROGRAMMING</tspan></text><text class="cls-19" transform="translate(5305.92 872.23)">CONCEPT DISCUSSION</text><text class="cls-19" transform="translate(5305.92 928.51)">WOODEN + <tspan class="cls-20" x="176.82" y="0">T</tspan><tspan x="193.01" y="0">APE</tspan></text><text class="cls-19" transform="translate(5305.92 984.79)"><tspan class="cls-23">P</tspan><tspan x="15.39" y="0">APER PRO</tspan><tspan class="cls-35" x="164.45" y="0">T</tspan><tspan x="182.33" y="0">OTYPE</tspan></text><text class="cls-19" transform="translate(5838.39 753.97)">REDUCE DEPENDENCIES</text><text class="cls-19" transform="translate(6461.85 693.79)">FREEING U<tspan class="cls-35" x="162.14" y="0">P</tspan><tspan x="179.75" y="0" xml:space="preserve"> THE </tspan></text><text class="cls-19" transform="translate(6461.85 729.79)">INITIA<tspan class="cls-34" x="96.97" y="0">L</tspan><tspan x="114.19" y="0" xml:space="preserve"> FRAME</tspan></text><text class="cls-19" transform="translate(6875.4 693.79)">USING THE</text><text class="cls-19" transform="translate(6875.4 729.79)">POSITION IN S<tspan class="cls-41" x="210.35" y="0">P</tspan><tspan x="225.71" y="0">ACE</tspan></text><text class="cls-19" transform="translate(6514.35 786.73)">NOT<tspan class="cls-24" x="66.9" y="0"> </tspan><tspan class="cls-8" x="73.32" y="0">A</tspan><tspan x="95.03" y="0" xml:space="preserve"> FIXED</tspan></text><text class="cls-19" transform="translate(6514.35 822.73)">ANGLE</text><text class="cls-19" transform="translate(6947.25 786.73)">ADDING <tspan class="cls-39" x="135.21" y="0">V</tspan><tspan x="153.57" y="0">ARIABLE </tspan></text><text class="cls-19" transform="translate(6947.25 822.73)">FOR BODI<tspan class="cls-23" x="143.04" y="0">L</tspan><tspan class="cls-35" x="158.64" y="0">Y</tspan><tspan x="178.14" y="0"> </tspan></text><text class="cls-19" transform="translate(6947.25 858.73)">INTERACTION</text><text class="cls-19" transform="translate(5838.39 806.71)">MORE PO<tspan class="cls-24" x="139.53" y="0">R</tspan><tspan class="cls-25" x="158.49" y="0">T</tspan><tspan x="174.68" y="0">ABILITY</tspan></text><text class="cls-19" transform="translate(5838.39 859.42)">PLUG &amp; PL<tspan class="cls-40" x="157.46" y="0">A</tspan><tspan x="177.46" y="0">Y</tspan></text><text class="cls-19" transform="translate(5838.39 912.13)">FIT &amp; FINISH</text><text class="cls-19" transform="translate(5838.39 964.84)">DURABILITY</text><text class="cls-19" transform="translate(6134.37 1391.38)">I CAN USE IT</text><text class="cls-19" transform="translate(5448.03 1509.28)">NOT </text><text class="cls-19" transform="translate(5448.03 1545.28)">READ<tspan class="cls-35" x="84.92" y="0">Y</tspan><tspan x="104.42" y="0"> </tspan><tspan class="cls-35" x="111.92" y="0">T</tspan><tspan x="129.79" y="0">O HAND</tspan></text><text class="cls-19" transform="translate(5309.97 1654.27)">NEED DURABILIT<tspan class="cls-42" x="257.48" y="0">Y</tspan><tspan x="274.13" y="0">,</tspan></text><text class="cls-19" transform="translate(5309.97 1690.27)">FIT &amp; FINISH FOR</text><text class="cls-19" transform="translate(5309.97 1726.27)">E<tspan class="cls-39" x="18.33" y="0">V</tspan><tspan x="36.69" y="0">ALU</tspan><tspan class="cls-22" x="101.69" y="0">A</tspan><tspan x="122.8" y="0">TION OVER TIME </tspan></text><text class="cls-19" transform="translate(5309.97 1762.27)">BUT<tspan class="cls-34" x="60.04" y="0"> </tspan><tspan x="66.43" y="0">ALSO FOR ENABLING </tspan></text><text class="cls-19" transform="translate(5309.97 1798.27)">EMBODIED REL<tspan class="cls-22" x="227.67" y="0">A</tspan><tspan x="248.78" y="0">TIONS </tspan></text><text class="cls-19" transform="translate(5309.97 1834.27)">WITH THE<tspan class="cls-24" x="152.62" y="0"> </tspan><tspan x="159.04" y="0">A</tspan><tspan class="cls-24" x="182.38" y="0">R</tspan><tspan x="201.34" y="0">TI</tspan><tspan class="cls-22" x="229.83" y="0">F</tspan><tspan x="244.29" y="0">ACT</tspan></text><text class="cls-19" transform="translate(6138.36 1509.31)">OTHER COULD</text><text class="cls-36" transform="translate(5866.9 1024.78)">FIXED GRIDSTICK</text><text class="cls-43" transform="translate(5990.46 266.68)">GRIDSTICK IN THE WORLD</text><text class="cls-19" transform="translate(4999.92 944.64)">CONSTRAINED</text><text class="cls-19" transform="translate(4999.92 1024.89)">OPEN SYSTEMS</text><text class="cls-19" transform="translate(5098.74 984.75)">VS</text><text class="cls-36" transform="translate(5321.29 814.69)">FOCUS GROUP</text><text class="cls-36" transform="translate(5745.25 1392.37)">PRO<tspan class="cls-35" x="82.32" y="0">T</tspan><tspan x="106.16" y="0">OTYPE</tspan></text><text class="cls-36" transform="translate(6498.73 1208.05)">CONTRASTING WITH INITIA<tspan class="cls-44" x="558.71" y="0">L</tspan><tspan x="581.67" y="0"> </tspan></text><text class="cls-36" transform="translate(6498.73 1256.05)">ASSUMPTIONS &amp; INITIA<tspan class="cls-45" x="470.29" y="0">L</tspan><tspan x="493.21" y="0" xml:space="preserve"> BRIEF</tspan></text><text class="cls-36" transform="translate(6488.61 1698.01)">INCREASING<tspan class="cls-34" x="255.59" y="0"> </tspan><tspan x="264.11" y="0">AND IMPROVING</tspan></text><text class="cls-36" transform="translate(6488.61 1746.01)">EMBODIMENT THROUGH </text><text class="cls-36" transform="translate(6488.61 1794.01)">DEVICE, NOT<tspan class="cls-34" x="259.75" y="0"> </tspan><tspan class="cls-46" x="268.27" y="0">A</tspan><tspan x="296.46" y="0">T DEVICE</tspan></text><text class="cls-36" transform="translate(5838.37 1462.57)">PRODUCT</text><text class="cls-36" transform="translate(5327.73 179.25)">MESS<tspan class="cls-47" x="104.26" y="0">Y</tspan><tspan x="130.22" y="0" xml:space="preserve"> + WIRES</tspan></text><text class="cls-48" transform="translate(4378.33 1638.13)">NUANCED/READ<tspan class="cls-49" x="244.95" y="0">Y</tspan><tspan x="263.12" y="0"> </tspan><tspan class="cls-50" x="270.12" y="0">T</tspan><tspan x="286.8" y="0">O HAND</tspan></text><text class="cls-19" transform="translate(3894.08 891.96)">D<tspan class="cls-20" x="23.22" y="0">AT</tspan><tspan x="60.56" y="0">A</tspan></text><text class="cls-51" transform="translate(132.94 684.44)">HYBRID <tspan class="cls-46" x="206.93" y="0">T</tspan><tspan x="233.92" y="0">ANGIBLE</tspan></text><text class="cls-51" transform="translate(132.94 744.44)">INTERACTION COURSE</text><text class="cls-51" transform="translate(776.14 583.04)">SKETCHES + BRAINS<tspan class="cls-52" x="500.34" y="0">T</tspan><tspan x="530.08" y="0">ORMING</tspan></text><text class="cls-36" transform="translate(2213.99 533.79)">PRO<tspan class="cls-53" x="82.32" y="0">T</tspan><tspan x="106.16" y="0">OTYPE</tspan></text><text class="cls-36" transform="translate(3069.67 533.79)">SOFT<tspan class="cls-54" x="99.2" y="0">W</tspan><tspan x="135.56" y="0">ARE PRO</tspan><tspan class="cls-35" x="310.15" y="0">T</tspan><tspan x="333.98" y="0">OTYPE</tspan></text><text class="cls-36" transform="translate(3838.47 533.79)">MUSIC TECH EXHIBIT</text><text class="cls-55" transform="translate(2432.42 621.57)">WOOD &amp; <tspan class="cls-56" x="219.52" y="0">T</tspan><tspan x="245.15" y="0">APE</tspan></text><text class="cls-57" transform="translate(3090.69 606.35)">FEASIBILITY</text><text class="cls-57" transform="translate(3090.69 659.52)">PRACTICALITY/</text><text class="cls-57" transform="translate(3090.69 701.52)">MUSIC SOFT<tspan class="cls-58" x="210.85" y="0">W</tspan><tspan x="242.63" y="0">ARE</tspan></text><text class="cls-57" transform="translate(3090.69 749.78)">X/<tspan class="cls-59" x="44.55" y="0">Y</tspan><tspan x="67.3" y="0" xml:space="preserve"> CONCEPT REMAINED</tspan></text><text class="cls-57" transform="translate(3090.69 791.78)">MOST<tspan class="cls-58" x="100.44" y="0">L</tspan><tspan class="cls-35" x="118.6" y="0">Y</tspan><tspan x="141.35" y="0" xml:space="preserve"> THE SAME</tspan></text><text class="cls-57" transform="translate(3090.69 899.79)">FROM<tspan class="cls-60" x="103.46" y="0"> </tspan><tspan x="110.95" y="0">ADSR (COMPRESSOR) </tspan></text><text class="cls-57" transform="translate(3090.69 941.79)">FUNCTIONS <tspan class="cls-59" x="217.55" y="0">T</tspan><tspan x="238.41" y="0">O MORE </tspan></text><text class="cls-57" transform="translate(3090.69 983.79)">GENERIC SOUND DESIGN</text><text class="cls-57" transform="translate(3277.35 1063.28)">MIDI</text><text class="cls-57" transform="translate(3277.35 1105.28)">CONTROLLER</text><text class="cls-57" transform="translate(3560.99 1063.28)">GENERIC</text><text class="cls-57" transform="translate(3560.99 1105.28)">CONTROLLER</text><text class="cls-57" transform="translate(3148.69 1173.04)">MORE GENERA<tspan class="cls-61" x="263.29" y="0">L</tspan><tspan x="283.41" y="0"> </tspan></text><text class="cls-57" transform="translate(3148.69 1215.04)">APPLIC<tspan class="cls-62" x="127.49" y="0">A</tspan><tspan x="152.12" y="0">TIONS THAN </tspan></text><text class="cls-57" transform="translate(3148.69 1257.04)">ANTICI<tspan class="cls-58" x="126.16" y="0">P</tspan><tspan x="144.08" y="0">ANTED / FUN!</tspan></text><text class="cls-55" transform="translate(2432.42 690.37)">LASER CUT</text><text class="cls-63" transform="translate(2432.42 741.82)">(NON FUNCTIONAL)</text><text class="cls-63" transform="translate(2442.53 833.66)">EXPLORING <tspan class="cls-64" x="240.01" y="0">T</tspan><tspan x="261.15" y="0">ACTILITY</tspan></text><text class="cls-19" transform="translate(3965.48 612.63)">USING DIGI<tspan class="cls-20" x="170.84" y="0">T</tspan><tspan x="187.04" y="0">AL</tspan></text><text class="cls-19" transform="translate(3965.48 648.63)">CALIPERS <tspan class="cls-21" x="152.77" y="0">T</tspan><tspan x="170.61" y="0">O DEVELOP</tspan></text><text class="cls-19" transform="translate(3965.48 684.63)">PRO<tspan class="cls-35" x="61.74" y="0">T</tspan><tspan x="79.62" y="0">OTYPING PHYSICAL</tspan><tspan class="cls-41" x="377.02" y="0">L</tspan><tspan x="392.59" y="0">Y</tspan></text><text class="cls-19" transform="translate(4727.57 505.95)">CALIPERS</text><text class="cls-19" transform="translate(4727.57 626.94)">ARDUINO</text><text class="cls-65" transform="translate(2442.51 910.64)">FEEDBACK FROM FELLOW </text><text class="cls-65" transform="translate(2442.51 949.09)">DESIGN STUDENTS</text><text class="cls-66" transform="translate(132.94 909.63)">THEO<tspan class="cls-67" x="119.36" y="0">R</tspan><tspan class="cls-68" x="145.9" y="0">Y</tspan><tspan x="173.2" y="0" xml:space="preserve"> - PHENOMENOLOGY</tspan></text><text class="cls-66" transform="translate(132.94 960.03)">INITI<tspan class="cls-46" x="103.09" y="0">A</tspan><tspan x="132.7" y="0">TION</tspan></text><text class="cls-19" transform="translate(446.94 1048.93)">MAXIMUM GRIP</text><text class="cls-69" transform="translate(288.58 1184.12)">SELECTING</text><text class="cls-69" transform="translate(288.58 1228.52)">THEO<tspan class="cls-70" x="105.15" y="0">R</tspan><tspan class="cls-71" x="128.53" y="0">Y</tspan><tspan x="152.58" y="0" xml:space="preserve"> TH</tspan><tspan class="cls-72" x="215.29" y="0">A</tspan><tspan x="241.37" y="0">T</tspan></text><text class="cls-69" transform="translate(288.58 1272.92)">M<tspan class="cls-72" x="34.99" y="0">A</tspan><tspan x="61.07" y="0">TCHES</tspan></text><text class="cls-69" transform="translate(288.58 1317.32)">INTEREST</text><text class="cls-57" transform="translate(404.9 1485.67)">GRID-BASED SYSTEMS</text><text class="cls-57" transform="translate(907.01 1597.01)">STRUCTURED<tspan class="cls-73" x="235.75" y="0"> </tspan><tspan x="243.21" y="0">AND LIMITED</tspan></text><text class="cls-57" transform="translate(907.01 1639.01)">S<tspan class="cls-74" x="18.37" y="0">P</tspan><tspan x="36.33" y="0">ACE GROUNED IN</tspan><tspan class="cls-73" x="350.51" y="0"> </tspan><tspan class="cls-8" x="357.96" y="0">A</tspan><tspan x="383.3" y="0"> </tspan></text><text class="cls-57" transform="translate(907.01 1681.01)"><tspan class="cls-6">V</tspan><tspan x="21.43" y="0">ARIET</tspan><tspan class="cls-49" x="126.65" y="0">Y</tspan><tspan x="149.36" y="0" xml:space="preserve"> OF </tspan><tspan class="cls-74" x="213.84" y="0">W</tspan><tspan class="cls-6" x="245.66" y="0">A</tspan><tspan x="269.03" y="0">YS</tspan></text><text class="cls-75" transform="translate(1679.16 1608.76)">MAKING MUSIC PROD. </text><text class="cls-75" transform="translate(1679.16 1654.35)"><tspan class="cls-76">T</tspan><tspan x="22.64" y="0">OOLS EAS</tspan><tspan class="cls-76" x="207.76" y="0">Y</tspan><tspan x="232.46" y="0"> </tspan><tspan class="cls-76" x="241.96" y="0">T</tspan><tspan x="264.6" y="0">O </tspan></text><text class="cls-75" transform="translate(1679.16 1699.96)">UNDERS<tspan class="cls-77" x="159.09" y="0">T</tspan><tspan x="179.56" y="0">AND &amp; MORE </tspan></text><text class="cls-75" transform="translate(1679.16 1745.55)">EXPLOR<tspan class="cls-46" x="149.98" y="0">A</tspan><tspan class="cls-76" x="176.76" y="0">T</tspan><tspan x="199.4" y="0">O</tspan><tspan class="cls-78" x="229.27" y="0">R</tspan><tspan x="253.29" y="0">Y</tspan></text><text class="cls-79" transform="translate(1075.66 1148.9)">MOUSE/KBD<tspan class="cls-80" x="197.23" y="0"> </tspan><tspan x="203.87" y="0">AS</tspan></text><text class="cls-79" transform="translate(1075.66 1186.1)">DIS<tspan class="cls-81" x="50.71" y="0">T</tspan><tspan x="67.44" y="0">ANCING OR </tspan></text><text class="cls-79" transform="translate(1075.66 1223.3)">CONFUSING </text><text class="cls-79" transform="translate(1075.66 1260.5)">WHILE</text><text class="cls-79" transform="translate(1075.66 1297.7)">PRODUCING </text><text class="cls-79" transform="translate(1075.66 1334.9)">MUSIC</text><text class="cls-48" transform="translate(1378.7 735.42)">CAUGHT U<tspan class="cls-49" x="154.01" y="0">P</tspan><tspan x="170.42" y="0" xml:space="preserve"> ON </tspan></text><text class="cls-48" transform="translate(1378.7 769.02)">VISUALIS<tspan class="cls-82" x="129.14" y="0">A</tspan><tspan x="148.85" y="0">TION INSTEAD OF </tspan></text><text class="cls-48" transform="translate(1378.7 802.62)">SOUND</text><text class="cls-57" transform="translate(1873.52 622.06)">WH<tspan class="cls-83" x="64.12" y="0">A</tspan><tspan x="88.79" y="0">T IFS?</tspan></text><text class="cls-57" transform="translate(1873.52 664.06)">PHYSICA<tspan class="cls-60" x="155.81" y="0">L</tspan><tspan x="175.93" y="0" xml:space="preserve"> EQ</tspan></text><text class="cls-57" transform="translate(1873.52 64.89)"><tspan class="cls-83">T</tspan><tspan x="18.89" y="0">ANGIBLE MODES</tspan></text><text class="cls-57" transform="translate(1873.52 106.89)">OF INTERACTION</text><text class="cls-57" transform="translate(1877.33 159.88)">FOCUS - IMPLICIT</text><text class="cls-57" transform="translate(1994.13 775.6)">NOT PO<tspan class="cls-60" x="135.45" y="0">R</tspan><tspan class="cls-83" x="157.57" y="0">T</tspan><tspan x="176.47" y="0">ABLE</tspan></text><text class="cls-48" transform="translate(1378.7 892.32)">LOOKING<tspan class="cls-60" x="135.53" y="0"> </tspan><tspan class="cls-46" x="141.52" y="0">A</tspan><tspan x="161.26" y="0">T ISSUES WITH</tspan></text><text class="cls-48" transform="translate(1378.7 925.92)">PRODUCTING MUSIC </text><text class="cls-48" transform="translate(1378.7 959.52)">PERSONAL<tspan class="cls-58" x="151.58" y="0">L</tspan><tspan class="cls-84" x="166.11" y="0">Y</tspan><tspan x="184.31" y="0" xml:space="preserve"> + FRIENDS</tspan></text><text class="cls-85" transform="translate(1493.58 1073.28)">RESTRICTED BY</text><text class="cls-85" transform="translate(1493.58 1111.68)">MOUSE/KBD</text><text class="cls-85" transform="translate(1889.58 1168.64)">ENABLE EXPLOR<tspan class="cls-86" x="263.97" y="0">A</tspan><tspan x="286.49" y="0">TION </tspan></text><text class="cls-85" transform="translate(1889.58 1207.04)">VI<tspan class="cls-87" x="33.89" y="0">A</tspan><tspan x="57.05" y="0" xml:space="preserve"> PHYSICA</tspan><tspan class="cls-88" x="207.51" y="0">L</tspan><tspan x="225.9" y="0"> </tspan><tspan class="cls-89" x="233.9" y="0">T</tspan><tspan x="252.97" y="0">OOLS</tspan></text><text class="cls-85" transform="translate(1506.57 1232.25)">COMPRESSORS<tspan class="cls-88" x="235.28" y="0"> </tspan><tspan x="242.13" y="0">ARE </tspan></text><text class="cls-85" transform="translate(1506.57 1270.65)">COMPLEX<tspan class="cls-88" x="157.88" y="0"> </tspan><tspan x="164.72" y="0">AND HARD </tspan></text><text class="cls-85" transform="translate(1506.57 1309.05)"><tspan class="cls-89">T</tspan><tspan x="19.07" y="0">O UNDERS</tspan><tspan class="cls-86" x="186.19" y="0">T</tspan><tspan x="203.43" y="0">AND</tspan></text><text class="cls-85" transform="translate(1820.81 1387)">WH<tspan class="cls-46" x="58.63" y="0">A</tspan><tspan x="81.18" y="0">T IF I VISUALISE</tspan></text><text class="cls-85" transform="translate(1820.81 1425.4)">IT<tspan class="cls-88" x="30.39" y="0"> </tspan><tspan x="37.24" y="0">AS</tspan><tspan class="cls-90" x="78.93" y="0"> </tspan><tspan class="cls-87" x="85.74" y="0">A</tspan><tspan x="108.9" y="0" xml:space="preserve"> GRID</tspan></text><text class="cls-85" transform="translate(2258.82 1427)">WH<tspan class="cls-46" x="58.63" y="0">A</tspan><tspan x="81.18" y="0">T IS</tspan><tspan class="cls-90" x="136.37" y="0"> </tspan><tspan class="cls-87" x="143.18" y="0">A</tspan><tspan x="166.35" y="0" xml:space="preserve"> GRID</tspan></text><text class="cls-85" transform="translate(2258.82 1465.4)"><tspan class="cls-89">T</tspan><tspan x="19.07" y="0">O ME?</tspan></text><text class="cls-85" transform="translate(2315.14 1589.69)">X/<tspan class="cls-89" x="40.73" y="0">Y</tspan><tspan x="61.53" y="0"> </tspan></text><text class="cls-51" transform="translate(898.98 1470.55)">“FRAMES”</text><text class="cls-19" transform="translate(741.97 1048.93)">AU<tspan class="cls-35" x="46.67" y="0">T</tspan><tspan x="64.54" y="0">OBIOGRAPHICAL</tspan></text><text class="cls-19" transform="translate(741.97 1084.93)">DESIGN</text><text class="cls-19" transform="translate(776.98 1205.95)">SETTING BRIEF</text></svg>