<svg width="61" height="45" xmlns="http://www.w3.org/2000/svg" xmlns:xlink="http://www.w3.org/1999/xlink"><defs><path id="soprasterialogo_svg__a" d="M.011.653h16.384v18.944H.011z"/><path id="soprasterialogo_svg__c" d="M.69.791h41.872V19H.69z"/><path id="soprasterialogo_svg__e" d="M0 .653h16.385v18.943H0z"/><path id="soprasterialogo_svg__g" d="M.833.25h41.871v18.209H.834z"/></defs><g fill="none" fill-rule="evenodd"><g transform="translate(44 20.75)"><mask id="soprasterialogo_svg__b" fill="#fff"><use xlink:href="#soprasterialogo_svg__a"/></mask><path d="M1.758 17.619c-.33.218-.728.467-1.092.676l-.111.064.11.013c7.133 1.958 14.194 1.885 15.549-2.565C17.966 10.063 6.622 3.9 1.268.963.12.333-.377.727.356 1.568 3.735 5.46 8.55 13.12 1.758 17.618" fill="#FFF" mask="url(#soprasterialogo_svg__b)"/></g><g transform="translate(2 25.75)"><mask id="soprasterialogo_svg__d" fill="#fff"><use xlink:href="#soprasterialogo_svg__c"/></mask><path d="M42.562 13.356S33.582 19 17.736 19c-6.14 0-11.308-.94-13.494-3.09C1.939 13.644.69 9.83.69 6.322.69 3.317 1.939.791 4.54.791c6.683 0 27.495 10.586 38.02 12.565" fill="#FFF" mask="url(#soprasterialogo_svg__d)"/></g><g transform="translate(0 3.75)"><mask id="soprasterialogo_svg__f" fill="#fff"><use xlink:href="#soprasterialogo_svg__e"/></mask><path d="M14.638 2.631c.33-.217.728-.466 1.091-.675l.112-.065-.112-.012C8.598-.081 1.537-.006.182 4.442c-1.753 5.745 9.591 11.908 14.946 14.844 1.147.629 1.645.236.912-.604C12.661 14.79 7.845 7.13 14.638 2.63" fill="#FFF" mask="url(#soprasterialogo_svg__f)"/></g><g transform="translate(15 -.25)"><mask id="soprasterialogo_svg__h" fill="#fff"><use xlink:href="#soprasterialogo_svg__g"/></mask><path d="M.833 5.894S9.813.25 25.66.25c6.14 0 11.308.94 13.494 3.09 2.303 2.265 3.551 6.08 3.551 9.587 0 3.006-1.248 5.532-3.85 5.532-6.683 0-27.495-10.586-38.02-12.565" fill="#FFF" mask="url(#soprasterialogo_svg__h)"/></g></g></svg>